<svg width="30" height="30" viewBox="0 0 30 30" fill="none" xmlns="http://www.w3.org/2000/svg">
<path d="M24.9795 19.9738V22.9846C24.9807 23.2642 24.9234 23.5408 24.8114 23.7969C24.6995 24.053 24.5352 24.2829 24.3293 24.4719C24.1233 24.6608 23.8802 24.8047 23.6154 24.8942C23.3506 24.9838 23.0701 25.017 22.7917 24.9919C19.7034 24.6563 16.7369 23.601 14.1306 21.9108C11.7057 20.3699 9.64985 18.3141 8.10898 15.8892C6.41287 13.271 5.35735 10.2901 5.02792 7.18795C5.00284 6.91042 5.03582 6.63071 5.12477 6.36663C5.21371 6.10254 5.35667 5.85987 5.54454 5.65407C5.73241 5.44826 5.96108 5.28383 6.21598 5.17123C6.47088 5.05864 6.74643 5.00036 7.02509 5.0001H10.0359C10.523 4.9953 10.9951 5.16778 11.3644 5.48537C11.7337 5.80297 11.9749 6.24401 12.0431 6.72629C12.1702 7.68982 12.4059 8.63587 12.7456 9.54641C12.8807 9.90563 12.9099 10.296 12.8298 10.6713C12.7498 11.0466 12.5638 11.3911 12.294 11.664L11.0194 12.9386C12.4481 15.4512 14.5285 17.5315 17.041 18.9602L18.3156 17.6856C18.5885 17.4158 18.933 17.2298 19.3083 17.1498C19.6836 17.0698 20.074 17.099 20.4332 17.234C21.3438 17.5738 22.2898 17.8095 23.2533 17.9365C23.7409 18.0053 24.1861 18.2509 24.5044 18.6265C24.8226 19.0021 24.9917 19.4817 24.9795 19.9738Z" fill="#030306"/>
</svg>
