<svg width="130" height="31" viewBox="0 0 130 31" fill="none" xmlns="http://www.w3.org/2000/svg">
<g clip-path="url(#clip0_36_44)">
<path fill-rule="evenodd" clip-rule="evenodd" d="M8.26389 24.4149C5.01369 25.2187 2.50925 25.1234 1.39642 23.9316C1.30582 23.8364 1.23148 23.7388 1.1641 23.6343C1.034 24.5357 1.20127 25.293 1.73097 25.8529C2.97157 27.1795 5.94066 27.1539 9.75075 26.0295C13.0335 29.0776 17.6637 30.5784 22.4007 29.6746C30.2997 28.1669 35.4828 20.5397 33.9774 12.6407C33.8264 11.8485 33.6173 11.0842 33.3478 10.3454C35.4619 7.59934 36.2867 5.23429 35.3643 3.83106C35.1576 5.21803 34.2213 6.94186 32.6926 8.83529C31.5333 6.51439 29.7863 4.59076 27.6814 3.20844C23.632 4.41187 18.6534 6.85126 13.7699 10.2153C10.3548 12.5641 7.44843 15.0383 5.25531 17.3778C5.28551 17.6194 5.32268 17.8587 5.36914 18.098C5.82682 20.4886 6.84672 22.6306 8.26389 24.4149Z" fill="url(#paint0_radial_36_44)"/>
<path d="M21.7617 21.8244V21.2343C22.1636 21.153 22.4633 21.0647 22.6608 20.9695C22.8583 20.8719 23.0046 20.7395 23.1022 20.5652C23.1998 20.3933 23.2462 20.161 23.2462 19.8706C23.2462 19.5965 23.2137 19.3014 23.1487 18.9831C23.0836 18.6648 22.993 18.3094 22.8722 17.9144L22.4261 16.3579H16.8016L16.3904 17.5404C16.1813 18.1351 16.0442 18.5858 15.9792 18.8925C15.9141 19.1992 15.8816 19.4756 15.8816 19.7242C15.8816 20.2075 16.0047 20.5606 16.2487 20.7859C16.4949 21.0113 16.869 21.16 17.3778 21.232V21.8221H12.2295V21.232C12.6802 21.16 13.0728 20.8975 13.405 20.4468C13.7396 19.996 14.0625 19.3525 14.3762 18.5162L19.4083 5.15759H21.3156L25.4185 18.6137C25.6113 19.241 25.7832 19.7196 25.9319 20.0495C26.0806 20.3794 26.2595 20.6373 26.4686 20.8208C26.6776 21.0067 26.9634 21.1437 27.3258 21.232V21.8221H21.7617V21.8244ZM17.1292 15.3101H22.1729L19.8799 7.52728L17.1292 15.3101Z" fill="white"/>
<path fill-rule="evenodd" clip-rule="evenodd" d="M5.13874 14.4669C1.01965 18.6557 -0.920241 22.4867 0.420261 24.4544C0.88723 20.8906 5.92631 15.0918 13.4466 9.92729C22.9509 3.38508 32.8084 0.325388 35.4708 3.08538C35.5614 3.18064 35.645 3.28286 35.7194 3.3874C35.8425 2.4465 35.645 1.6566 35.0875 1.07579C33.5472 -0.51562 29.5814 -0.167136 24.6771 1.69377C22.2842 0.810943 19.6287 0.553065 16.9454 1.06417C10.2684 2.3373 5.53601 7.98275 5.13874 14.4669Z" fill="#030306"/>
</g>
<path d="M44.6461 25.3196C43.2612 25.3196 42.0538 25.0089 41.024 24.3874C40.012 23.7483 39.2308 22.8871 38.6804 21.8041C38.1299 20.7032 37.8547 19.4604 37.8547 18.0755C37.8547 16.6906 38.1299 15.4566 38.6804 14.3735C39.2308 13.2727 40.012 12.4116 41.024 11.7901C42.0538 11.1509 43.2612 10.8313 44.6461 10.8313C46.4926 10.8313 47.9663 11.3107 49.0671 12.2695C50.1857 13.2105 50.8515 14.4889 51.0646 16.1046H47.7089C47.5491 15.3234 47.2029 14.7197 46.6702 14.2936C46.1375 13.8497 45.4628 13.6278 44.6461 13.6278C43.5453 13.6278 42.7019 14.0273 42.116 14.8263C41.5478 15.6253 41.2637 16.7083 41.2637 18.0755C41.2637 19.4426 41.5478 20.5257 42.116 21.3247C42.7019 22.1237 43.5453 22.5231 44.6461 22.5231C45.4806 22.5231 46.1642 22.2923 46.6968 21.8307C47.2295 21.3691 47.5668 20.721 47.7089 19.8865H51.0646C50.8515 21.52 50.1857 22.8339 49.0671 23.8282C47.9486 24.8224 46.4749 25.3196 44.6461 25.3196ZM58.8603 25.3196C57.4754 25.3196 56.2681 25.0089 55.2383 24.3874C54.2262 23.7483 53.445 22.8871 52.8946 21.8041C52.3442 20.7032 52.069 19.4604 52.069 18.0755C52.069 16.6906 52.3442 15.4566 52.8946 14.3735C53.445 13.2727 54.2262 12.4116 55.2383 11.7901C56.2681 11.1509 57.4754 10.8313 58.8603 10.8313C60.7069 10.8313 62.1805 11.3107 63.2814 12.2695C64.3999 13.2105 65.0658 14.4889 65.2788 16.1046H61.9231C61.7633 15.3234 61.4171 14.7197 60.8844 14.2936C60.3518 13.8497 59.6771 13.6278 58.8603 13.6278C57.7595 13.6278 56.9161 14.0273 56.3302 14.8263C55.762 15.6253 55.478 16.7083 55.478 18.0755C55.478 19.4426 55.762 20.5257 56.3302 21.3247C56.9161 22.1237 57.7595 22.5231 58.8603 22.5231C59.6948 22.5231 60.3784 22.2923 60.9111 21.8307C61.4437 21.3691 61.7811 20.721 61.9231 19.8865H65.2788C65.0658 21.52 64.3999 22.8339 63.2814 23.8282C62.1628 24.8224 60.6891 25.3196 58.8603 25.3196ZM66.8158 11.1509H70.065V13.6278C70.8995 11.87 72.2933 10.9911 74.2464 10.9911H75.3383V14.0805H74.1132C72.8526 14.0805 71.8761 14.4001 71.1836 15.0393C70.5089 15.6785 70.1716 16.7616 70.1716 18.2885V25H66.8158V11.1509ZM80.2498 19.487C80.2498 20.3748 80.4629 21.085 80.889 21.6176C81.3151 22.1325 81.9898 22.39 82.9131 22.39C83.641 22.39 84.3246 22.1503 84.9638 21.6709C85.6207 21.1915 86.0025 20.4103 86.109 19.3272V11.1509H89.4648V25H86.2155V23.1091C85.7006 23.7838 85.0792 24.3253 84.3513 24.7337C83.6233 25.1243 82.7888 25.3196 81.8478 25.3196C80.2853 25.3196 79.0691 24.8313 78.1991 23.8548C77.3468 22.8605 76.9207 21.5377 76.9207 19.8865V11.1509H80.2498V19.487ZM98.0699 25.3196C96.6672 25.3196 95.451 25.0089 94.4212 24.3874C93.3914 23.7483 92.6012 22.8871 92.0508 21.8041C91.5004 20.7032 91.2252 19.4604 91.2252 18.0755C91.2252 16.6906 91.5004 15.4566 92.0508 14.3735C92.6012 13.2727 93.3914 12.4116 94.4212 11.7901C95.451 11.1509 96.6672 10.8313 98.0699 10.8313C99.4725 10.8313 100.689 11.1421 101.719 11.7635C102.748 12.3849 103.538 13.2638 104.089 14.4001C104.639 15.5365 104.914 16.8504 104.914 18.3418V19.1408H94.5543C94.6964 20.2416 95.0692 21.1116 95.6729 21.7508C96.2943 22.3722 97.0933 22.6829 98.0699 22.6829C99.6678 22.6829 100.769 22.0438 101.372 20.7654H104.648C104.187 22.168 103.379 23.2777 102.225 24.0945C101.07 24.9112 99.6856 25.3196 98.0699 25.3196ZM101.532 16.7438C101.355 15.714 100.964 14.915 100.36 14.3469C99.7744 13.761 99.0109 13.468 98.0699 13.468C97.1288 13.468 96.3565 13.761 95.7528 14.3469C95.1669 14.915 94.7763 15.714 94.581 16.7438H101.532ZM108.061 9.36654C108.061 8.05265 108.381 7.13826 109.02 6.62336C109.677 6.0907 110.636 5.82438 111.896 5.82438H114.906V8.40776H112.722C112.242 8.40776 111.896 8.51429 111.683 8.72735C111.488 8.92266 111.39 9.25113 111.39 9.71277V11.1509H114.906V13.7343H111.39V25H108.061V13.7343H105.638V11.1509H108.061V9.36654ZM115.855 27.5834H118.039C118.696 27.5834 119.149 27.468 119.397 27.2372C119.664 27.0241 119.912 26.5891 120.143 25.9321L120.463 25.1332L115.216 11.1509H118.811L122.22 21.6975L125.603 11.1509H129.225L123.525 26.5713C123.064 27.8142 122.513 28.7463 121.874 29.3678C121.235 30.007 120.303 30.3266 119.078 30.3266H115.855V27.5834Z" fill="#030306"/>
<defs>
<radialGradient id="paint0_radial_36_44" cx="0" cy="0" r="1" gradientUnits="userSpaceOnUse" gradientTransform="translate(15.8014 9.14737) scale(22.9518 22.9518)">
<stop stop-color="#03839E"/>
<stop offset="1" stop-color="#004250"/>
</radialGradient>
<clipPath id="clip0_36_44">
<rect width="35.7545" height="29.8697" fill="white" transform="translate(0 0.0651855)"/>
</clipPath>
</defs>
</svg>
