<svg width="186" height="186" viewBox="0 0 186 186" fill="none" xmlns="http://www.w3.org/2000/svg">
<path d="M128.272 43.1373C121.136 38.1081 113.003 34.6695 104.423 33.0538C95.8432 31.4381 87.0165 31.6829 78.5394 33.7718C70.0624 35.8607 62.1325 39.7449 55.2856 45.1619C48.4388 50.579 42.8345 57.4027 38.8516 65.1719L93.1341 93.0001L128.272 43.1373Z" fill="#F8F6F2"/>
<path d="M154.134 93C154.134 102.23 152.04 111.339 148.009 119.641C143.978 127.944 138.115 135.224 130.863 140.933C123.611 146.641 115.157 150.629 106.14 152.597C97.1228 154.565 87.7766 154.461 78.8053 152.293C69.834 150.125 61.4716 145.95 54.3481 140.081C47.2245 134.213 41.5255 126.804 37.6802 118.414C33.835 110.024 31.9438 100.87 32.1491 91.6429C32.3545 82.4157 34.6509 73.3553 38.8656 65.1443L93.134 93H154.134Z" fill="#004250"/>
<path d="M154.134 93C154.134 83.2198 151.782 73.5831 147.277 64.9022C142.772 56.2214 136.246 48.751 128.249 43.1209L93.1338 93L154.134 93Z" fill="#C090EF"/>
</svg>
