<svg width="1200" height="420" viewBox="0 0 1200 420" fill="none" xmlns="http://www.w3.org/2000/svg">
<mask id="mask0_258_1338" style="mask-type:alpha" maskUnits="userSpaceOnUse" x="0" y="0" width="1200" height="420">
<rect width="1200" height="420" fill="#D9D9D9"/>
</mask>
<g mask="url(#mask0_258_1338)">
<rect width="1200" height="420" fill="#004250"/>
<circle cx="902.421" cy="345.83" r="75" transform="rotate(0.630509 902.421 345.83)" fill="white"/>
<circle cx="675.888" cy="168.734" r="75.0668" transform="rotate(0.630509 675.888 168.734)" fill="white"/>
<circle cx="776.741" cy="268.359" r="150" transform="rotate(0.630509 776.741 268.359)" fill="#1B5C69"/>
<path d="M1413.84 365.471C1413.84 467.08 1331.47 549.45 1229.86 549.45C1128.26 549.45 1045.88 467.08 1045.88 365.471C1045.88 263.861 1128.26 181.491 1229.86 181.491C1331.47 181.491 1413.84 263.861 1413.84 365.471ZM1134.34 365.471C1134.34 418.23 1177.11 461 1229.86 461C1282.62 461 1325.39 418.23 1325.39 365.471C1325.39 312.711 1282.62 269.942 1229.86 269.942C1177.11 269.942 1134.34 312.711 1134.34 365.471Z" fill="#0C505F"/>
<path d="M198.904 -16.0663C198.904 85.5428 116.533 167.913 14.924 167.913C-86.6852 167.913 -169.056 85.5428 -169.056 -16.0663C-169.056 -117.675 -86.6852 -200.046 14.924 -200.046C116.533 -200.046 198.904 -117.675 198.904 -16.0663ZM-80.605 -16.0663C-80.605 36.6929 -37.8352 79.4627 14.924 79.4627C67.6831 79.4627 110.453 36.6929 110.453 -16.0663C110.453 -68.8255 67.6831 -111.595 14.924 -111.595C-37.8352 -111.595 -80.605 -68.8255 -80.605 -16.0663Z" fill="#0C505F"/>
</g>
</svg>
